<svg width="9" height="14" viewBox="0 0 9 14" fill="none" xmlns="http://www.w3.org/2000/svg">
<path d="M5.49547 7.02709C5.39995 6.91571 5.35218 6.85382 5.30442 6.80432C3.85965 5.30679 2.42681 3.80926 0.982035 2.32411C0.743229 2.07658 0.492482 1.84143 0.265616 1.58153C-0.164234 1.09886 -0.0448302 0.381034 0.504423 0.0963805C0.838752 -0.0768878 1.23278 -0.0150057 1.51935 0.269648C1.78204 0.52955 2.03278 0.789452 2.28353 1.04935C3.88353 2.70777 5.49547 4.36619 7.09547 6.02461C7.39398 6.33402 7.69248 6.6558 8.00293 7.00234C7.96711 7.05184 7.90741 7.1261 7.84771 7.18798C5.77009 9.34145 3.68054 11.4949 1.60293 13.6608C1.24472 14.0321 0.83875 14.0568 0.552183 13.933C-0.0209512 13.6855 -0.188115 12.9306 0.241736 12.4479C0.516362 12.1385 0.80293 11.8662 1.07756 11.5692C2.47457 10.1088 3.87159 8.67314 5.25666 7.22511C5.3283 7.16323 5.39995 7.11373 5.49547 7.02709Z" fill="white"/>
</svg>
